<?xml version="1.0" encoding="UTF-8" standalone="no"?>
<svg
   xmlns:dc="http://purl.org/dc/elements/1.1/"
   xmlns:cc="http://creativecommons.org/ns#"
   xmlns:rdf="http://www.w3.org/1999/02/22-rdf-syntax-ns#"
   xmlns:svg="http://www.w3.org/2000/svg"
   xmlns="http://www.w3.org/2000/svg"
   version="1.1"
   id="svg9707"
   viewBox="0 0 358.21323 229.97607"
   height="64.904358mm"
   width="101.09573mm">
  <defs
     id="defs9709" />
  <metadata
     id="metadata9712">
    <rdf:RDF>
      <cc:Work
         rdf:about="">
        <dc:format>image/svg+xml</dc:format>
        <dc:type
           rdf:resource="http://purl.org/dc/dcmitype/StillImage" />
        <dc:title></dc:title>
      </cc:Work>
    </rdf:RDF>
  </metadata>
  <g
     transform="translate(-172.32196,-397.37415)"
     id="layer1">
    <rect
       transform="matrix(0,1,-1,0,0,0)"
       ry="0"
       y="-374.1998"
       x="494.62756"
       height="9.5817537"
       width="8.5468655"
       id="rect4268-2-1-3-2-4-49-0-1-8-3-7-6-0"
       style="opacity:1;fill:#00ac80;fill-opacity:0.98431373;stroke:none;stroke-width:1;stroke-miterlimit:4;stroke-dasharray:none;stroke-opacity:1" />
    <rect
       transform="matrix(0,1,-1,0,0,0)"
       ry="0"
       y="-364.66592"
       x="422.12317"
       height="9.5817537"
       width="8.5468655"
       id="rect4268-6-8-8-9-6-1-8-6-2-8-8"
       style="opacity:1;fill:#00ac80;fill-opacity:0.98431373;stroke:none;stroke-width:1;stroke-miterlimit:4;stroke-dasharray:none;stroke-opacity:1" />
    <rect
       transform="matrix(0,1,-1,0,0,0)"
       ry="0"
       y="-355.28458"
       x="438.74133"
       height="9.5817537"
       width="8.5468655"
       id="rect4268-9-4-0-4-9-3-0-0-5-4-5"
       style="opacity:1;fill:#f25800;fill-opacity:0.99215686;stroke:none;stroke-width:1;stroke-miterlimit:4;stroke-dasharray:none;stroke-opacity:1" />
    <rect
       transform="matrix(0,1,-1,0,0,0)"
       ry="0"
       y="-336.25797"
       x="397.37415"
       height="9.5817537"
       width="8.5468655"
       id="rect4268-20-1-5-1-3-7-7-5-8-3-1"
       style="opacity:1;fill:#00ab80;fill-opacity:0.99215686;stroke:none;stroke-width:1;stroke-miterlimit:4;stroke-dasharray:none;stroke-opacity:1" />
    <rect
       transform="matrix(0,1,-1,0,0,0)"
       ry="0"
       y="-336.25797"
       x="431.6803"
       height="9.5817537"
       width="8.5468655"
       id="rect4268-2-2-5-9-6-8-3-9-1-9-4-1"
       style="opacity:1;fill:#00ab80;fill-opacity:0.99215686;stroke:none;stroke-width:1;stroke-miterlimit:4;stroke-dasharray:none;stroke-opacity:1" />
    <rect
       transform="matrix(0,1,-1,0,0,0)"
       ry="0"
       y="-336.25797"
       x="494.62756"
       height="9.5817537"
       width="8.5468655"
       id="rect4268-2-1-3-2-6-6-3-7-3-1-2-4-7-4"
       style="opacity:1;fill:#00ab80;fill-opacity:0.99215686;stroke:none;stroke-width:1;stroke-miterlimit:4;stroke-dasharray:none;stroke-opacity:1" />
    <path
       id="path7955-6-8-0-4-3-9-9-9-1-4-0"
       d="m 352.77906,477.60323 c -18.5843,0 -35.4035,0.9611 -47.66409,2.5312 -6.1303,0.7851 -11.109,1.713 -14.6953,2.7988 -1.7931,0.543 -3.2362,1.1108 -4.3886,1.8321 -0.9432,0.5902 -1.8732,1.412 -2.1836,2.5918 l 6.0097,0 c 0.5058,-0.1971 1.0692,-0.3985 1.7207,-0.5957 3.1995,-0.9687 8.0417,-1.8895 14.045,-2.6582 12.00629,-1.5376 28.71039,-2.5 47.15619,-2.5 18.44581,0 35.14991,0.9624 47.15621,2.5 6.0033,0.7687 10.8455,1.6895 14.045,2.6582 0.6515,0.1972 1.2149,0.3986 1.7207,0.5957 l 6.0097,0 c -0.3104,-1.1798 -1.2404,-2.0016 -2.1836,-2.5918 -1.1524,-0.7213 -2.5955,-1.2891 -4.3886,-1.8321 -3.5863,-1.0858 -8.565,-2.0137 -14.6953,-2.7988 -12.2606,-1.5701 -29.0798,-2.5312 -47.66411,-2.5312 z"
       style="color:#000000;font-style:normal;font-variant:normal;font-weight:normal;font-stretch:normal;font-size:medium;line-height:normal;font-family:sans-serif;text-indent:0;text-align:start;text-decoration:none;text-decoration-line:none;text-decoration-style:solid;text-decoration-color:#000000;letter-spacing:normal;word-spacing:normal;text-transform:none;direction:ltr;block-progression:tb;writing-mode:lr-tb;baseline-shift:baseline;text-anchor:start;white-space:normal;clip-rule:nonzero;display:inline;overflow:visible;visibility:visible;opacity:1;isolation:auto;mix-blend-mode:normal;color-interpolation:sRGB;color-interpolation-filters:linearRGB;solid-color:#000000;solid-opacity:1;fill:#323232;fill-opacity:0.99215686;fill-rule:nonzero;stroke:none;stroke-width:4;stroke-linecap:butt;stroke-linejoin:miter;stroke-miterlimit:4;stroke-dasharray:none;stroke-dashoffset:0;stroke-opacity:1;color-rendering:auto;image-rendering:auto;shape-rendering:auto;text-rendering:auto;enable-background:accumulate" />
    <rect
       transform="matrix(0,1,-1,0,0,0)"
       ry="0"
       y="-383.69254"
       x="464.48889"
       height="9.5817537"
       width="30.138876"
       id="rect4268-9-9-7-6-2-0-6-1-3-3-9-8"
       style="opacity:1;fill:#d4d800;fill-opacity:0.99215686;stroke:none;stroke-width:1;stroke-miterlimit:4;stroke-dasharray:none;stroke-opacity:1" />
    <rect
       transform="matrix(0,1,-1,0,0,0)"
       ry="0"
       y="-364.66592"
       x="460.57434"
       height="9.5817537"
       width="35.315907"
       id="rect4268-9-9-7-2-2-9-3-4-7-9-3-2-1"
       style="opacity:1;fill:#00ac80;fill-opacity:0.98431373;stroke:none;stroke-width:1;stroke-miterlimit:4;stroke-dasharray:none;stroke-opacity:1" />
    <rect
       transform="matrix(0,1,-1,0,0,0)"
       ry="0"
       y="-345.75076"
       x="469.0343"
       height="9.5817537"
       width="25.593189"
       id="rect4268-9-9-7-0-1-8-8-2-2-8-7-5-5"
       style="opacity:1;fill:#f25800;fill-opacity:0.99215686;stroke:none;stroke-width:1;stroke-miterlimit:4;stroke-dasharray:none;stroke-opacity:1" />
    <rect
       transform="matrix(0,1,-1,0,0,0)"
       ry="0"
       y="-326.72415"
       x="486.08069"
       height="9.5817537"
       width="8.5468655"
       id="rect4268-9-9-7-2-5-1-9-1-2-6-7-6-7-1"
       style="opacity:1;fill:#00ab80;fill-opacity:0.99215686;stroke:none;stroke-width:1;stroke-miterlimit:4;stroke-dasharray:none;stroke-opacity:1" />
    <path
       id="rect4173-1-6-0-4-3-3-4-1-1"
       d="m 260.79965,423.19843 c -0.73566,0.056 -1.45814,0.3062 -2.07031,0.7597 l -0.11914,0.088 c -1.63249,1.2094 -1.84538,3.3934 -0.47852,4.8965 l 40.29882,44.3144 c 0.31909,0.3509 0.69936,0.6254 1.10937,0.836 a 17.793639,11.652931 43.332617 0 0 4.72656,17.4375 17.793639,11.652931 43.332617 0 0 21.37303,6.1132 17.793639,11.652931 43.332617 0 0 -2.4785,-20.1113 17.793639,11.652931 43.332617 0 0 -18.0332,-7.5996 c -0.14908,-0.3985 -0.3705,-0.7824 -0.68554,-1.1289 l -40.29882,-44.3144 c -0.85429,-0.9394 -2.11765,-1.3849 -3.34375,-1.291 z"
       style="opacity:1;fill:#ffffff;fill-opacity:1;stroke:#323232;stroke-width:4;stroke-miterlimit:4;stroke-dasharray:none;stroke-opacity:1" />
    <path
       id="path7932-3-0-4-6-8-3-4-8"
       d="m 286.69134,492.50543 c -0.37113,22.43 16.78997,41.822 37.2205,49.0774 12.24654,5.087 25.58499,1.2397 38.34004,2.6373 18.14435,1.5238 35.79677,-7.9626 47.06445,-21.793 6.69146,-8.4184 10.82431,-19.4589 10.17188,-30.1073 -2.71614,-3.9877 -8.23853,0.7608 -11.96068,0.4324 -39.78707,8.2068 -81.59077,8.0589 -120.83033,-2.8328 -0.002,0.862 -0.004,1.724 -0.006,2.586 z"
       style="opacity:1;fill:#ffffff;fill-opacity:1;stroke:none;stroke-width:1;stroke-miterlimit:4;stroke-dasharray:none;stroke-opacity:1" />
    <rect
       transform="matrix(0,1,-1,0,0,0)"
       ry="0"
       y="-326.72415"
       x="422.84143"
       height="9.5817537"
       width="8.5468655"
       id="rect4268-2-06-9-3-6-3-5-4-8-0-5-0-5"
       style="opacity:1;fill:#00ab80;fill-opacity:0.99215686;stroke:none;stroke-width:1;stroke-miterlimit:4;stroke-dasharray:none;stroke-opacity:1" />
    <rect
       transform="matrix(0,1,-1,0,0,0)"
       ry="0"
       y="-326.72415"
       x="454.86389"
       height="9.5817537"
       width="8.5468655"
       id="rect4268-2-1-6-3-4-9-4-0-9-4-9-4-4-7"
       style="opacity:1;fill:#00ab80;fill-opacity:0.99215686;stroke:none;stroke-width:1;stroke-miterlimit:4;stroke-dasharray:none;stroke-opacity:1" />
    <rect
       transform="matrix(0,1,-1,0,0,0)"
       ry="0"
       y="-326.72415"
       x="486.43274"
       height="9.5817537"
       width="8.5468655"
       id="rect4268-2-0-8-1-2-8-1-3-9-6-2-8-8-8"
       style="opacity:1;fill:#00ab80;fill-opacity:0.99215686;stroke:none;stroke-width:1;stroke-miterlimit:4;stroke-dasharray:none;stroke-opacity:1" />
    <rect
       transform="matrix(0,1,-1,0,0,0)"
       ry="0"
       y="-393.22641"
       x="439.76868"
       height="9.5817537"
       width="15.600437"
       id="rect4268-9-43-56-1-3-6-3-7-3-5"
       style="opacity:1;fill:#d4d800;fill-opacity:0.99215686;stroke:none;stroke-width:1;stroke-miterlimit:4;stroke-dasharray:none;stroke-opacity:1" />
    <rect
       transform="matrix(0,1,-1,0,0,0)"
       ry="0"
       y="-393.22641"
       x="471.7843"
       height="9.5817537"
       width="23.951693"
       id="rect4268-2-1-0-1-8-8-7-1-3-3-1"
       style="opacity:1;fill:#d4d800;fill-opacity:0.99215686;stroke:none;stroke-width:1;stroke-miterlimit:4;stroke-dasharray:none;stroke-opacity:1" />
    <rect
       transform="matrix(0,1,-1,0,0,0)"
       ry="0"
       y="-374.1998"
       x="477.66956"
       height="9.5817537"
       width="18.77466"
       id="rect4268-27-5-4-81-1-4-0-6-4-5-2"
       style="opacity:1;fill:#00ac80;fill-opacity:0.98431373;stroke:none;stroke-width:1;stroke-miterlimit:4;stroke-dasharray:none;stroke-opacity:1" />
    <rect
       transform="matrix(0,1,-1,0,0,0)"
       ry="0"
       y="-355.28458"
       x="460.42004"
       height="9.5817537"
       width="8.5468655"
       id="rect4268-2-1-78-6-3-4-5-3-0-8-6-4"
       style="opacity:1;fill:#f25800;fill-opacity:0.99215686;stroke:none;stroke-width:1;stroke-miterlimit:4;stroke-dasharray:none;stroke-opacity:1" />
    <rect
       transform="matrix(0,1,-1,0,0,0)"
       ry="0"
       y="-355.28458"
       x="477.50403"
       height="9.5817537"
       width="8.5468655"
       id="rect4268-2-0-5-5-7-8-5-7-1-9-7-4"
       style="opacity:1;fill:#f25800;fill-opacity:0.99215686;stroke:none;stroke-width:1;stroke-miterlimit:4;stroke-dasharray:none;stroke-opacity:1" />
    <rect
       transform="matrix(0,1,-1,0,0,0)"
       ry="0"
       y="-345.75076"
       x="450.82385"
       height="9.5817537"
       width="8.5468655"
       id="rect4268-2-1-6-6-1-7-4-7-3-2-9-5-3"
       style="opacity:1;fill:#f25800;fill-opacity:0.99215686;stroke:none;stroke-width:1;stroke-miterlimit:4;stroke-dasharray:none;stroke-opacity:1" />
    <rect
       transform="matrix(0,1,-1,0,0,0)"
       ry="0"
       y="-336.25797"
       x="463.0719"
       height="9.5817537"
       width="31.780375"
       id="rect4268-2-1-7-4-7-5-9-7-1-5-6-0-3"
       style="opacity:1;fill:#00ab80;fill-opacity:0.99215686;stroke:none;stroke-width:1;stroke-miterlimit:4;stroke-dasharray:none;stroke-opacity:1" />
    <rect
       transform="matrix(0,1,-1,0,0,0)"
       ry="0"
       y="-345.75076"
       x="415.01233"
       height="9.5817537"
       width="16.123009"
       id="rect4268-2-06-1-0-6-8-0-2-5-5-5-5-0"
       style="opacity:1;fill:#f25800;fill-opacity:0.99215686;stroke:none;stroke-width:1;stroke-miterlimit:4;stroke-dasharray:none;stroke-opacity:1" />
    <g
       style="opacity:1;stroke:#323232;stroke-width:4;stroke-miterlimit:4;stroke-dasharray:none;stroke-opacity:1"
       transform="translate(128.13934,-429.73197)"
       id="g5450-1-3-9-6-2-5-3-6">
      <path
         style="fill:none;fill-rule:evenodd;stroke:#323232;stroke-width:4;stroke-linecap:butt;stroke-linejoin:miter;stroke-miterlimit:4;stroke-dasharray:none;stroke-opacity:1"
         d="m 157.93753,918.72521 c -1.07143,45.71428 46.07143,55.35714 46.07143,55.35714 l 40,0"
         id="path4144-1-3-3-0-8-6-6-8-9" />
      <path
         style="fill:none;fill-rule:evenodd;stroke:#323232;stroke-width:4;stroke-linecap:butt;stroke-linejoin:miter;stroke-miterlimit:4;stroke-dasharray:none;stroke-opacity:1"
         d="m 292.13425,918.72521 c 1.07143,45.71428 -46.07143,55.35714 -46.07143,55.35714 l -40,0"
         id="path4144-6-0-6-7-5-9-9-0-5-6" />
    </g>
    <path
       id="path7955-6-8-2-9-6-2-2-3-2-5-0"
       d="m 285.28297,485.30243 c -0.2054,0.1655 -0.4004,0.3423 -0.5801,0.5371 0.1784,-0.1956 0.3758,-0.371 0.5801,-0.5371 z m -0.5801,0.5371 c -0.3924,0.4253 -0.7,0.927 -0.8554,1.5176 0.1552,-0.5899 0.4662,-1.0909 0.8554,-1.5176 z m -0.8554,1.5176 c -0.069,0.2618 -0.1172,0.5347 -0.1172,0.834 0,1.6478 1.1483,2.7045 2.3008,3.4257 1.1524,0.7213 2.5955,1.2872 4.3886,1.8301 3.5863,1.0858 8.565,2.0138 14.6953,2.7988 12.26059,1.57 29.07979,2.5312 47.66409,2.5312 18.58431,0 35.40351,-0.9612 47.66411,-2.5312 6.1303,-0.785 11.109,-1.713 14.6953,-2.7988 1.7931,-0.5429 3.2362,-1.1088 4.3886,-1.8301 1.1525,-0.7212 2.3008,-1.7779 2.3008,-3.4257 0,-0.2993 -0.048,-0.5722 -0.1172,-0.834 l -6.0097,0 c 0.736,0.2868 1.3274,0.5637 1.7031,0.7988 0.033,0.021 0.018,0.016 0.047,0.035 -0.029,0.019 -0.014,0.014 -0.047,0.035 -0.6338,0.3967 -1.8241,0.9082 -3.4238,1.3926 -3.1995,0.9687 -8.0417,1.8894 -14.045,2.6582 -12.0063,1.5375 -28.7104,2.5 -47.15621,2.5 -18.4458,0 -35.1499,-0.9625 -47.15619,-2.5 -6.0033,-0.7688 -10.8455,-1.6895 -14.045,-2.6582 -1.5997,-0.4844 -2.79,-0.9959 -3.4238,-1.3926 -0.033,-0.021 -0.018,-0.016 -0.047,-0.035 0.029,-0.019 0.014,-0.014 0.047,-0.035 0.3757,-0.2351 0.9671,-0.512 1.7031,-0.7988 l -6.0097,0 z m 137.8632,0 c -0.1554,-0.5906 -0.463,-1.0923 -0.8554,-1.5176 0.3892,0.4267 0.7002,0.9277 0.8554,1.5176 z m -0.8554,-1.5176 c -0.1797,-0.1948 -0.3747,-0.3716 -0.5801,-0.5371 0.2043,0.1661 0.4017,0.3415 0.5801,0.5371 z"
       style="color:#000000;font-style:normal;font-variant:normal;font-weight:normal;font-stretch:normal;font-size:medium;line-height:normal;font-family:sans-serif;text-indent:0;text-align:start;text-decoration:none;text-decoration-line:none;text-decoration-style:solid;text-decoration-color:#000000;letter-spacing:normal;word-spacing:normal;text-transform:none;direction:ltr;block-progression:tb;writing-mode:lr-tb;baseline-shift:baseline;text-anchor:start;white-space:normal;clip-rule:nonzero;display:inline;overflow:visible;visibility:visible;opacity:1;isolation:auto;mix-blend-mode:normal;color-interpolation:sRGB;color-interpolation-filters:linearRGB;solid-color:#000000;solid-opacity:1;fill:#323232;fill-opacity:0.99215686;fill-rule:nonzero;stroke:none;stroke-width:4;stroke-linecap:butt;stroke-linejoin:miter;stroke-miterlimit:4;stroke-dasharray:none;stroke-dashoffset:0;stroke-opacity:1;color-rendering:auto;image-rendering:auto;shape-rendering:auto;text-rendering:auto;enable-background:accumulate" />
    <text
       transform="scale(0.999553,1.0004472)"
       id="text9183-9-6-6"
       y="614.35345"
       x="169.01216"
       style="font-style:italic;font-variant:normal;font-weight:normal;font-stretch:normal;font-size:61.69980621px;line-height:125%;font-family:sans-serif;-inkscape-font-specification:'sans-serif Italic';text-align:start;writing-mode:lr-tb;text-anchor:start;opacity:1;fill:#323232;fill-opacity:0.99215686;stroke:#323232;stroke-width:0.99999994;stroke-miterlimit:4;stroke-dasharray:none;stroke-opacity:0.99215686"
       xml:space="preserve"><tspan
         style="font-style:normal;font-variant:normal;font-weight:normal;font-stretch:normal;font-family:NanumGothic;-inkscape-font-specification:NanumGothic;fill:#323232;fill-opacity:0.99215686;stroke:#323232;stroke-width:0.99999994;stroke-opacity:0.99215686"
         id="tspan9191-2-3-7"
         y="614.35345"
         x="169.01216">datapudding</tspan></text>
  </g>
</svg>
